<?xml version="1.0" encoding="utf-8"?>
<!DOCTYPE svg PUBLIC "-//W3C//DTD SVG 20010904//EN" "http://www.w3.org/TR/2001/REC-SVG-20010904/DTD/svg10.dtd">
<svg xmlns="http://www.w3.org/2000/svg" xml:space="preserve" xmlns:xlink="http://www.w3.org/1999/xlink" width="112" height="39.714" viewBox="0 0 112 39.714">
<desc></desc>
<rect x="0" y="0" width="112" height="39.714" style="fill:#ffffff;" />
<line fill="none" style="stroke:#000000; stroke-width:2;" x1="1" y1="0" x2="1" y2="30"/>
<line fill="none" style="stroke:#000000; stroke-width:1;" x1="3.5" y1="0" x2="3.5" y2="30"/>
<line fill="none" style="stroke:#000000; stroke-width:1;" x1="6.5" y1="0" x2="6.5" y2="30"/>
<line fill="none" style="stroke:#000000; stroke-width:1;" x1="11.5" y1="0" x2="11.5" y2="30"/>
<line fill="none" style="stroke:#000000; stroke-width:1;" x1="14.5" y1="0" x2="14.5" y2="30"/>
<line fill="none" style="stroke:#000000; stroke-width:2;" x1="20" y1="0" x2="20" y2="30"/>
<line fill="none" style="stroke:#000000; stroke-width:1;" x1="22.5" y1="0" x2="22.5" y2="30"/>
<line fill="none" style="stroke:#000000; stroke-width:1;" x1="25.5" y1="0" x2="25.5" y2="30"/>
<line fill="none" style="stroke:#000000; stroke-width:2;" x1="28" y1="0" x2="28" y2="30"/>
<line fill="none" style="stroke:#000000; stroke-width:1;" x1="33.5" y1="0" x2="33.5" y2="30"/>
<line fill="none" style="stroke:#000000; stroke-width:1;" x1="36.5" y1="0" x2="36.5" y2="30"/>
<line fill="none" style="stroke:#000000; stroke-width:4;" x1="41" y1="0" x2="41" y2="30"/>
<line fill="none" style="stroke:#000000; stroke-width:1;" x1="44.5" y1="0" x2="44.5" y2="30"/>
<line fill="none" style="stroke:#000000; stroke-width:1;" x1="49.5" y1="0" x2="49.5" y2="30"/>
<line fill="none" style="stroke:#000000; stroke-width:2;" x1="52" y1="0" x2="52" y2="30"/>
<line fill="none" style="stroke:#000000; stroke-width:1;" x1="55.5" y1="0" x2="55.5" y2="30"/>
<line fill="none" style="stroke:#000000; stroke-width:4;" x1="61" y1="0" x2="61" y2="30"/>
<line fill="none" style="stroke:#000000; stroke-width:1;" x1="64.5" y1="0" x2="64.5" y2="30"/>
<line fill="none" style="stroke:#000000; stroke-width:1;" x1="66.5" y1="0" x2="66.5" y2="30"/>
<line fill="none" style="stroke:#000000; stroke-width:1;" x1="71.5" y1="0" x2="71.5" y2="30"/>
<line fill="none" style="stroke:#000000; stroke-width:2;" x1="75" y1="0" x2="75" y2="30"/>
<line fill="none" style="stroke:#000000; stroke-width:1;" x1="77.5" y1="0" x2="77.5" y2="30"/>
<line fill="none" style="stroke:#000000; stroke-width:2;" x1="80" y1="0" x2="80" y2="30"/>
<line fill="none" style="stroke:#000000; stroke-width:1;" x1="83.5" y1="0" x2="83.5" y2="30"/>
<line fill="none" style="stroke:#000000; stroke-width:2;" x1="89" y1="0" x2="89" y2="30"/>
<line fill="none" style="stroke:#000000; stroke-width:1;" x1="93.5" y1="0" x2="93.5" y2="30"/>
<line fill="none" style="stroke:#000000; stroke-width:1;" x1="95.5" y1="0" x2="95.5" y2="30"/>
<line fill="none" style="stroke:#000000; stroke-width:2;" x1="100" y1="0" x2="100" y2="30"/>
<line fill="none" style="stroke:#000000; stroke-width:3;" x1="105.5" y1="0" x2="105.5" y2="30"/>
<line fill="none" style="stroke:#000000; stroke-width:1;" x1="108.5" y1="0" x2="108.5" y2="30"/>
<line fill="none" style="stroke:#000000; stroke-width:2;" x1="111" y1="0" x2="111" y2="30"/>
<text x="56" y="37.763" text-anchor="middle" style="font-family: Tahoma; font-size: 9px; stroke: none; fill:#000000;">barcode</text></svg>